#N canvas 711 362 450 346 10;
#X obj 113 12 inlet;
#X obj 21 42 loadbang;
#X obj 21 65 metro 1000;
#X obj 21 88 t b b;
#X obj 113 98 +;
#X obj 113 121 t a a;
#X obj 113 35 list length;
#X obj 48 169 f;
#X msg 21 111 0;
#X obj 48 192 / 1024;
#X obj 48 215 / 1024;
#X obj 48 238 * 1000;
#X obj 48 261 int;
#X obj 48 284 * 0.001;
#X obj 48 307 outlet;
#X connect 0 0 6 0;
#X connect 1 0 2 0;
#X connect 2 0 3 0;
#X connect 3 0 8 0;
#X connect 3 1 7 0;
#X connect 4 0 5 0;
#X connect 5 0 7 1;
#X connect 5 1 4 1;
#X connect 6 0 4 0;
#X connect 7 0 9 0;
#X connect 8 0 5 0;
#X connect 9 0 10 0;
#X connect 10 0 11 0;
#X connect 11 0 12 0;
#X connect 12 0 13 0;
#X connect 13 0 14 0;
