#N canvas 296 230 694 668 10;
#X declare -path iemnet;
#X obj 185 385 netsend -u -b;
#X msg 383 397 disconnect;
#X obj 20 60 tgl 20 0 empty empty empty 17 7 0 10 -262144 -1 -1 0 1
;
#X msg 250 331 47 104 98 0 44 0 0 0;
#X obj 20 40 tgl 20 0 empty empty empty 17 7 0 10 -204786 -1 -1 0 1
;
#X obj 375 206 sel 0 1;
#X obj 348 179 t a a;
#X obj 250 298 metro 1000;
#X obj 288 456 route 47;
#X obj 420 10 declare -path iemnet;
#X obj 457 194 r server;
#X obj 394 232 list append;
#X msg 394 366 connect \$1 \$2;
#X obj 519 65 loadbang;
#X obj 546 213 select one many;
#X msg 546 236 0;
#X msg 589 236 1;
#X obj 394 255 unpack s f;
#X obj 451 282 list prepend;
#X obj 451 305 route 0 1;
#X obj 476 328 + 1;
#X obj 394 342 pack s f;
#X obj 333 482 print \$1_\$2;
#X obj 260 425 t a a;
#X obj 158 162 inlet;
#X obj 40 40 nbx 5 20 -1e+37 1e+37 0 0 empty empty empty 0 -8 0 10
-262144 -1 -1 0 256;
#X obj 40 60 nbx 5 20 -1e+37 1e+37 0 0 empty empty empty 0 -8 0 10
-262144 -1 -1 0 256;
#X text 97 43 UP;
#X text 98 63 DOWN;
#X obj 546 190 symbol \$1;
#X obj 260 509 bwmeter;
#X obj 158 245 t a a;
#X obj 158 270 bwmeter;
#X obj 519 88 t b b;
#X obj 519 116 s reinit;
#X connect 0 0 2 0;
#X connect 0 1 23 0;
#X connect 1 0 0 0;
#X connect 3 0 31 0;
#X connect 4 0 6 0;
#X connect 5 0 1 0;
#X connect 5 1 11 0;
#X connect 6 0 7 0;
#X connect 6 1 5 0;
#X connect 7 0 3 0;
#X connect 8 1 22 0;
#X connect 10 0 11 1;
#X connect 11 0 17 0;
#X connect 12 0 0 0;
#X connect 13 0 33 0;
#X connect 14 0 15 0;
#X connect 14 1 16 0;
#X connect 15 0 18 1;
#X connect 16 0 18 1;
#X connect 17 0 21 0;
#X connect 17 1 18 0;
#X connect 18 0 19 0;
#X connect 19 0 21 1;
#X connect 19 1 20 0;
#X connect 20 0 21 1;
#X connect 21 0 12 0;
#X connect 23 0 30 0;
#X connect 23 1 8 0;
#X connect 24 0 31 0;
#X connect 29 0 14 0;
#X connect 30 0 26 0;
#X connect 31 0 32 0;
#X connect 31 1 0 0;
#X connect 32 0 25 0;
#X connect 33 0 34 0;
#X connect 33 1 29 0;
#X coords 0 -1 1 1 120 60 1 20 20;
